/* XPM */
static char * Closed_exit_xpm[] = {
"32 32 4 1",
" 	c #2E242F",
".	c #3E3546",
"+	c #966C6C",
"@	c #694F62",
"                ..       ..     ",
"   ........ .................   ",
" ..  ...... .  ...............  ",
" .... .....  ......   . ..... . ",
" .......  .. ........ ...... .. ",
" ...... ....  ......... ... ... ",
" ..... .++++ +++++@++++++. .... ",
" ......+@@@+ @@@ @@@@@@@+  .... ",
" .....+@@@+ @@@@ @@@@@@@ +++... ",
" .....+@@@@@@@@+ @@@@@@@@+++... ",
"  ... +@@@@@@@++ +  +@@      .. ",
"     .+@@+@@@+       + @@@@+ .. ",
" ..  .+@@ +@+         @@@@@+... ",
" .. ..+@@@ ++        +@@@@@+... ",
" .  ...+@@@           +@@++.... ",
" . ....+@@@+          @@@   ... ",
" . ...+@@@@+          +@@++   . ",
" ......+@@@+         +@@@@+.  . ",
" .....+@@@@@+        +@@@@@+ .. ",
" .....+@@@@@++ +++++ @@@@@@+ .. ",
"  ....+@+ @@@@@@@@@@@ @@@@@+  . ",
"  . ..+@@ @@@@@@@@@@@ @@@@@+..  ",
" ... .++ @@@@@@  @@@@@@@@@+.... ",
" ... ..  +@@@@@+ ++@@@@@@+..... ",
" .....  ..++++++ .+++++++...... ",
" ....    ....... ....   . ..... ",
"      .  ....... ..   .... .... ",
" ...... ....  .  .. ...... .... ",
" ....... ....    .......... ... ",
" ....... ....... ........... .  ",
"  ...... ......  ............   ",
"                                "};
