/* XPM */
static char * Collectible_xpm[] = {
"32 32 65 1",
" 	c #2E222F",
".	c #3E3546",
"+	c #625565",
"@	c #966C6C",
"#	c #AB947A",
"$	c #694F62",
"%	c #7F708A",
"&	c #9BABB2",
"*	c #C7DCD0",
"=	c #FFFFFF",
"-	c #6E2727",
";	c #B33831",
">	c #EA4F36",
",	c #F57D4A",
"'	c #AE2334",
")	c #E83B3B",
"!	c #FB6B1D",
"~	c #F79617",
"{	c #F9C22B",
"]	c #7A3045",
"^	c #9E4539",
"/	c #CD683D",
"(	c #E6904E",
"_	c #FBB954",
":	c #4C3E24",
"<	c #676633",
"[	c #A2A947",
"}	c #D5E04B",
"|	c #FBFF86",
"1	c #165A4C",
"2	c #239063",
"3	c #1EBC73",
"4	c #91DB69",
"5	c #CDDF6C",
"6	c #313638",
"7	c #374E4A",
"8	c #547E64",
"9	c #92A984",
"0	c #B2BA90",
"a	c #0B5E65",
"b	c #0B8A8F",
"c	c #0EAF9B",
"d	c #30E1B9",
"e	c #8FF8E2",
"f	c #323353",
"g	c #484A77",
"h	c #4D65B4",
"i	c #4D9BE6",
"j	c #8FD3FF",
"k	c #45293F",
"l	c #6B3E75",
"m	c #905EA9",
"n	c #A884F3",
"o	c #EAADED",
"p	c #753C54",
"q	c #A24B6F",
"r	c #CF657F",
"s	c #ED8099",
"t	c #831C5D",
"u	c #C32454",
"v	c #F04F78",
"w	c #F68181",
"x	c #FCA790",
"y	c #FDCBB0",
"z	c #2E242F",
"..@@@$$$$@@@zzzzzz@@@@@@@zzzzzzz",
".@$$$$$$$$$$$@zzz@$$$$$$$@@$$@zz",
"@$$$$$$$$$$$$$@z@$$$$$$$$$$$$$@z",
"@$$$$$$$$$$$$$@z@$$$$$$$$$$$$$@z",
"@$$$$$$$$$$$$$$z@$$$$$$$$$$$$$@z",
"$$$$$$$$$$$$$$$zz@$$$$$$$$$$$$$z",
"$$$$$$$$$$$$$$@zzz$$$$$$$$$$$$@z",
"$$$$$$$$$$$$$$$zz$$$$$$$$$$$$$@z",
"$$$$$$$$$$$$$$$z@$$$$$$$$$$$$$$z",
"$$$$$$$$$$$$$$@z$$$$$$$$$$$$$$$z",
"$$$$$$$$$$$$$$@z$$$$$$$$$$$$$$$z",
"$$$$$$$$$$$$$$@z@$$$$$$$$$$$$$$z",
"@$$$$$$@$$$zzzzzz@$$$$$$$$$$$$@z",
"z@$$$$@z@$z||||zz@$$$$$$$$$$$$@z",
"zz@@@@zzzz|{{{{|zzzzzzzzz@@$@@zz",
"zzzzzzzzzz|{zz{{|||||||||zzzzzzz",
"z@@@@@@$$z|{zz{{{{{{{{{{{zzzz@zz",
"@@@$$$$$$z|{{{{{zzz{z{z{zzz@@$@z",
"@@$$$$$$$zz{{{{zzzzzz{z{zzz@$$@z",
"@$$$$$$$$zzzzzzz@$$zzzzzz$$.$$@z",
"@$$$$$$$$$$zzzzz@$$$$$$$$$$$$$$z",
"@$$$$$$$$$$$$$@z@$$$$$$$$$$$$$$z",
"$$$$$$$$$$$$$$$z@$@$$$$$$$$$$$@z",
"$$$$$$$$$$$$$$@z@@.$$$$$$$$$$$@z",
"$$$$$$$$$$$$$$$zzz$$$$$$$$$$$$@z",
"@$$$$$$$$$$$$$$z$$$$$$$$$$$$$$@z",
"$$$$$$$$$$$$$$$z@$$$$$$$$$$$$$@z",
"$$$$$$$$$$$$$$$z@$$$$$$$$$$$$$@z",
"@$$$$$$$$$$$$$@z$$$$$$$$$$$$$$@z",
"@$$$$$$$$$$$$$@z@$$$$$$$$$$@.@zz",
"z@$$@@$$$@@$@@zzz@@$$@@$$@@z@zzz",
"zzzzzzzzzzzzzzzzzzzzzzzzzzzzzzzz"};
