/* XPM */
static char * enemy1_xpm[] = {
"32 32 10 1",
" 	c #3E3546",
".	c #966C6C",
"+	c #694F62",
"@	c #2E242F",
"#	c #000000",
"$	c #967A5D",
"%	c #EEE0C4",
"&	c #FF004D",
"*	c #0D0707",
"=	c #FFF1E8",
"  ...++++...@@@@@@.......@@@@@@@",
" .+++++++++++.@@@.+++++++..++.@@",
".+++++++++++++.@.+++++++++++++.@",
".+++++++++++++.@.+++++++++++++.@",
".++++++++++++++@.+++++++++++++.@",
"+++++++++++++++@@.+++++++++++++@",
"++++++++++++########++++++++++.@",
"+++++++++++#$$$$%%%%#+++++++++.@",
"+++++++++++#$$$%%%%%%#+++++++++@",
"+++++++++++#$$$###%###+++++++++@",
"+++++++++++#$$$#&#%#&#+++++++++@",
"+++++++++++#$$%##%####+++++++++@",
".++++++.+++###%%%%%%%#++++++++.@",
"@.++++.@.++#$###$#$*$#++++++++.@",
"@@....@@@..#$#%$=*=*=#.++..+..@@",
"@@@@@@@@@@@#$#%$*****#@@@@@@@@@@",
"@......+++..#$#$#****#++..@@@.@@",
"...++++++++####$=*=*=##++.@..+.@",
"..++++++++#%%#%#$$$$$#%#++@.++.@",
".+++++++++#%%#%%######%#+++ ++.@",
".++++++++++###%%%%%%###++++++++@",
".++++++++++#$%####$%#++++++++++@",
"+++++++++++#$#+@.#$#++++++++++.@",
"+++++++++++#$#.@.#$#++++++++++.@",
"+++++++++++##++@@##+++++++++++.@",
".++++++++++++++@++++++++++++++.@",
"+++++++++++++++@.+++++++++++++.@",
"+++++++++++++++@.+++++++++++++.@",
".+++++++++++++.@++++++++++++++.@",
".+++++++++++++.@.++++++++++. .@@",
"@.++..+++..+..@@@..++..++..@.@@@",
"@@@@@@@@@@@@@@@@@@@@@@@@@@@@@@@@"};
