/* XPM */
static char * Exit_xpm[] = {
"32 32 7 1",
" 	c #2E242F",
".	c #966C6C",
"+	c #694F62",
"@	c #9E4539",
"#	c #7A3045",
"$	c #3E3546",
"%	c #CD683D",
"  ...+++++++++++++++++....+..   ",
" .+@@@####################@@..  ",
" .@#########################@.  ",
" .@#                       #@+  ",
" .@# $ $  $$$$ $$$$$ ##### #@+. ",
" +##  $  $ $$$       #@@@% #@+. ",
" +## $ $  $$$$ ##@#@ #@@@@ ##+. ",
".+##  $  $ $$$ #@#@# #@@%@ ##+. ",
"++## $ $       ##@#@ #@@%@ ##+. ",
"++##  $  ##### #@#@@ #@@@@ ##+. ",
"++## $ $ ####@ ##@@@ #@%@@ ##++ ",
".+##     ###@# #@@@@ #@%@@ #@++ ",
".+## ### ##@#@ ##@%@ #@%@@ #@+. ",
".+## ### ###@@ #@@%@ #@@@@ #@.  ",
" +## ### ##@#@ ##@@@ #@@@@ #@.  ",
" +## ##@ ###@@ #@@@@ #@@%@ #@.  ",
" .## ##@ ##@#@ ##@@@ #@@%@ #@.. ",
" .## ##@ ###@@ #@@%@ #@@@@ ##.. ",
" .## ##@ ##@#@ ##@@@ #@%@@ ##.. ",
" +## ##@ ###@@ #@@@@ #@%@@ ##+. ",
" +@# ##@ ##@#@ ##@@% #@%@@ ##++ ",
" +## ##@ ###@@ #@@@% #@@@@ #@++ ",
" +## ### ##@#@ ##@%@ #@@%@ #@++ ",
" +## ### ###@@ #@@%@ #@@%@ #@++ ",
" +@# ### ##@#@ ##@%@ #@@%@ #@++ ",
" .@# ### ##### ##### ##### #@++ ",
" +@#                       #@++ ",
" .@#########################@+. ",
" .+@@#@#@######@#@##@##@#@@@++. ",
"  .+++++++++++++++++++++++++++. ",
"   ...+++++........  ..++++...  ",
"                                "};
