/* XPM */
static char * n0_xpm[] = {
"8 16 2 1",
" 	c #86C06C",
".	c #071821",
"        ",
" ...... ",
" ...... ",
" ..  .. ",
" ..  .. ",
" ..  .. ",
" ..  .. ",
" ..  .. ",
" ..  .. ",
" ..  .. ",
" ..  .. ",
" ..  .. ",
" ..  .. ",
" ...... ",
" ...... ",
"        "};
