/* XPM */
static char * n1_xpm[] = {
"8 16 3 1",
" 	c #2E242F",
".	c #86C06C",
"+	c #071821",
" .....  ",
" .+++.  ",
" .+++.  ",
" ..++.  ",
"  .++.  ",
"  .++.  ",
"  .++.  ",
"  .++.  ",
"  .++.  ",
"  .++.  ",
"  .++.  ",
"  .++.  ",
"  .++.  ",
"  .++.  ",
"  .++.  ",
"  ....  "};
