/* XPM */
static char * n9_xpm[] = {
"8 16 3 1",
" 	c #86C06C",
".	c #071821",
"+	c #2E242F",
"        ",
" ...... ",
" ...... ",
" ..  .. ",
" ..  .. ",
" ..  .. ",
" ..  .. ",
" ...... ",
" ...... ",
"     .. ",
"++++ .. ",
"++++ .. ",
"     .. ",
" ...... ",
" ...... ",
"        "};
