/* XPM */
static char * Numbers_xpm[] = {
"80 16 3 1",
" 	c #86C06C",
".	c #2E242F",
"+	c #071821",
"        .     ..                                                                ",
" ++++++ . +++ .. ++++++  ++++++  ++  ++  ++++++  ++++++  ++++++  ++++++  ++++++ ",
" ++++++ . +++ .. ++++++  ++++++  ++  ++  ++++++  ++++++  ++++++  ++++++  ++++++ ",
" ++  ++ .  ++ ..     ++      ++  ++  ++  ++      ++          ++  ++  ++  ++  ++ ",
" ++  ++ .. ++ ...... ++ .... ++  ++  ++  ++ .... ++ ........ ++  ++  ++  ++  ++ ",
" ++  ++ .. ++ ...... ++ .... ++  ++  ++  ++ .... ++ ........ ++  ++  ++  ++  ++ ",
" ++  ++ .. ++ ..     ++ ..   ++  ++  ++  ++      ++     .... ++  ++  ++  ++  ++ ",
" ++  ++ .. ++ .. ++++++ .. ++++  ++++++  ++++++  ++++++ .... ++  ++++++  ++++++ ",
" ++  ++ .. ++ .. ++++++ .. ++++  ++++++  ++++++  ++++++ .... ++  ++++++  ++++++ ",
" ++  ++ .. ++ .. ++     ..   ++      ++      ++  ++  ++ .... ++  ++  ++      ++ ",
" ++  ++ .. ++ .. ++ ........ ++ .... ++ .... ++  ++  ++ .... ++  ++  ++ .... ++ ",
" ++  ++ .. ++ .. ++ ........ ++ .... ++ .... ++  ++  ++ .... ++  ++  ++ .... ++ ",
" ++  ++ .. ++ .. ++          ++ .... ++      ++  ++  ++ .... ++  ++  ++      ++ ",
" ++++++ .. ++ .. ++++++  ++++++ .... ++  ++++++  ++++++ .... ++  ++++++  ++++++ ",
" ++++++ .. ++ .. ++++++  ++++++ .... ++  ++++++  ++++++ .... ++  ++++++  ++++++ ",
"        ..    ..                ....                    ....                    "};
