/* XPM */
static char * Walk_xpm[] = {
"32 32 16 1",
" 	c #3E3546",
".	c #966C6C",
"+	c #694F62",
"@	c #2E242F",
"#	c #04431D",
"$	c #30CC6F",
"%	c #1ABA5B",
"&	c #0CAA4C",
"*	c #8B1AB5",
"=	c #008636",
"-	c #333907",
";	c #8F550A",
">	c #525D09",
",	c #077634",
"'	c #794706",
")	c #454D0B",
"  ...++++...@@@@@@.......@@@@@@@",
" .+++++++++++.@@@.+++++++..++.@@",
".+++++++++++++.@.+++++++++++++.@",
".+++++++++++++####++++++++++++.@",
".++++++++++++#$$$$#+++++++++++.@",
"++++++++++++#$$$$$$#+++++++++++@",
"+++++++++++#$$$$$$$$#+++++++++.@",
"+++++++++++#$$$$$$$$#+++++++++.@",
"+++++++++++#$$%%%%$$#++++++++++@",
"+++++++++++#$%&&&&%$#++++++++++@",
"+++++++++++#&&&&&*&=#++++++++++@",
"+++++++++++#&&&&====#++++++++++@",
".++++++.++-;#&&&&&&#++++++++++.@",
"@.++++.@.-;;;######$#+++++++++.@",
"@@....@@-;;;;;-$>==-$#.++..+..@@",
"@@@@@@@@-;;;;#$=>>=-$#@@@@@@@@@@",
"@......-;;;;#$=,->>>-$#+..@@@.@@",
"...++++-;;;'#&=#>)>>-&#++.@..+.@",
"..+++++-;;'#&=#))))>-&#+++@.++.@",
".++++++-;;#&=#)))))>-&#++++ ++.@",
".++++++-;;#=,#)))))>-#+++++++++@",
".++++++-;'#,,#==)))>-++++++++++@",
"++++++++-''''#=&$#)-++++++++++.@",
"+++++++++-'''##=&$#+++++++++++.@",
"++++++++++---#,##$&=++++++++++.@",
".+++++++++++#,,#$&,#++++++++++.@",
"+++++++++++#,,,#$$$$#+++++++++.@",
"+++++++++++####@####++++++++++.@",
".+++++++++++++.@++++++++++++++.@",
".+++++++++++++.@.++++++++++. .@@",
"@.++..+++..+..@@@..++..++..@.@@@",
"@@@@@@@@@@@@@@@@@@@@@@@@@@@@@@@@"};
